<?xml version="1.0" encoding="UTF-8"?>
<svg id="Camada_1" xmlns="http://www.w3.org/2000/svg" version="1.1" viewBox="0 0 401.92 397.89">
  <!-- Generator: Adobe Illustrator 29.0.1, SVG Export Plug-In . SVG Version: 2.1.0 Build 192)  -->
  <defs>
    <style>
      .st0 {
        fill: #063;
      }

      .st1 {
        fill: #2fac66;
      }
    </style>
  </defs>
  <g id="Camada_2">
    <path class="st1" d="M141.61,90.53h123.96l48.11,48.11h-172.08l-5.16-5.16v-37.8l5.16-5.16Z"/>
    <polygon class="st0" points="329.39 169.14 290.16 208.37 250.91 169.14 265.4 169.14 265.69 138.77 313.68 138.77 313.68 169.14 329.39 169.14"/>
    <path class="st1" d="M260.31,307.36h-123.96s-48.11-48.11-48.11-48.11h172.08c2.01,2.01,3.14,3.14,5.16,5.16v37.8l-5.16,5.16Z"/>
    <polygon class="st0" points="72.53 228.75 111.76 189.52 151.01 228.75 136.52 228.75 136.23 259.12 88.24 259.12 88.24 228.75 72.53 228.75"/>
    <path class="st0" d="M200.96,235.33c-47.64-35.6,0-84.54,0-84.54,0,0,47.64,48.94,0,84.54Z"/>
    <path class="st1" d="M202.65,247.1h0c-1.17,0-2.2,0-3.37,0h0c-1.83-3.32-3.08-5.58-4.91-8.9l6.59-40.54,6.59,40.54-4.91,8.9Z"/>
  </g>
</svg>